<svg width="23" height="23" viewBox="0 0 23 23" fill="none" xmlns="http://www.w3.org/2000/svg">
<path d="M11.5 13.9487L2.92966 22.519C2.609 22.8397 2.20089 23 1.70532 23C1.20976 23 0.801647 22.8397 0.480988 22.519C0.160329 22.1983 0 21.7902 0 21.2947C0 20.7991 0.160329 20.391 0.480988 20.0703L9.05133 11.5L0.480988 2.92966C0.160329 2.609 0 2.20089 0 1.70532C0 1.20976 0.160329 0.801647 0.480988 0.480988C0.801647 0.160329 1.20976 0 1.70532 0C2.20089 0 2.609 0.160329 2.92966 0.480988L11.5 9.05133L20.0703 0.480988C20.391 0.160329 20.7991 0 21.2947 0C21.7902 0 22.1983 0.160329 22.519 0.480988C22.8397 0.801647 23 1.20976 23 1.70532C23 2.20089 22.8397 2.609 22.519 2.92966L13.9487 11.5L22.519 20.0703C22.8397 20.391 23 20.7991 23 21.2947C23 21.7902 22.8397 22.1983 22.519 22.519C22.1983 22.8397 21.7902 23 21.2947 23C20.7991 23 20.391 22.8397 20.0703 22.519L11.5 13.9487Z" fill="black"/>
</svg>
