<svg width="31" height="32" viewBox="0 0 31 32" fill="none" xmlns="http://www.w3.org/2000/svg">
<path d="M15.5 19.409L3.94867 30.9603C3.51648 31.3925 2.96641 31.6086 2.29848 31.6086C1.63054 31.6086 1.08048 31.3925 0.648288 30.9603C0.216095 30.5282 0 29.9781 0 29.3102C0 28.6422 0.216095 28.0922 0.648288 27.66L12.1996 16.1086L0.648288 4.55731C0.216095 4.12512 0 3.57506 0 2.90712C0 2.23919 0.216095 1.68912 0.648288 1.25693C1.08048 0.824738 1.63054 0.608643 2.29848 0.608643C2.96641 0.608643 3.51648 0.824738 3.94867 1.25693L15.5 12.8083L27.0513 1.25693C27.4835 0.824738 28.0336 0.608643 28.7015 0.608643C29.3695 0.608643 29.9195 0.824738 30.3517 1.25693C30.7839 1.68912 31 2.23919 31 2.90712C31 3.57506 30.7839 4.12512 30.3517 4.55731L18.8004 16.1086L30.3517 27.66C30.7839 28.0922 31 28.6422 31 29.3102C31 29.9781 30.7839 30.5282 30.3517 30.9603C29.9195 31.3925 29.3695 31.6086 28.7015 31.6086C28.0336 31.6086 27.4835 31.3925 27.0513 30.9603L15.5 19.409Z" fill="black"/>
</svg>
